<svg width="50" height="50" viewBox="0 0 100 100" xmlns="http://www.w3.org/2000/svg">

<path d="M8.8,37.3c1.5,3.8,3.5,7.3,5.9,10.4c1.2,1.6,2.5,3,3.9,4.5c0.7,0.7,1.4,1.4,2.1,2.1c0.4,0.3,0.7,0.7,1.1,1l1.1,1  c6,5.1,12.7,9.1,19.9,11c1.8,0.5,3.6,0.8,5.4,1.1c1.8,0.3,3.6,0.3,5.4,0.3c0.9,0,1.8-0.1,2.7-0.1l1.3-0.1c0.4,0,0.9-0.1,1.3-0.2  c1.8-0.3,3.5-0.7,5.1-1.2c1.7-0.6,3.2-1.3,4.8-2.1l1.1-0.6l1.1-0.7c0.4-0.2,0.7-0.5,1-0.7c0.2-0.1,0.3-0.2,0.5-0.4l0.5-0.4  c2.6-2.1,4.8-4.9,6.4-7.9c1.6-3,2.5-6.3,2.7-9.5l0-0.6c0-0.2,0-0.4,0-0.6l0-0.6c0-0.2,0-0.4,0-0.6L82,41.1l-0.2-1.2l-0.1-0.3  l-0.1-0.3l-0.2-0.6l-0.2-0.6l-0.2-0.6c-0.2-0.8-0.6-1.5-0.9-2.3c-0.7-1.5-1.6-2.9-2.7-4.2c-0.3-0.3-0.5-0.6-0.8-0.9  c-0.3-0.3-0.6-0.6-0.9-0.9c-0.6-0.5-1.2-1.1-1.9-1.6l-0.5-0.4l-0.5-0.3l-0.5-0.3c-0.1-0.1-0.2-0.1-0.3-0.2l-0.3-0.1  c-0.4-0.2-0.7-0.4-1.1-0.5c-0.4-0.1-0.7-0.3-1.1-0.4c-1.5-0.6-3.1-0.9-4.7-0.9c-0.8,0-1.6,0-2.4,0.1c-0.4,0-0.8,0.1-1.2,0.2  c-0.2,0-0.4,0.1-0.6,0.1c-0.2,0-0.4,0.1-0.6,0.2c-1.5,0.5-2.9,1.1-4.1,2.1c-0.1,0.1-0.3,0.2-0.4,0.4l-0.4,0.4  c-0.1,0.1-0.2,0.3-0.4,0.4c-0.1,0.1-0.2,0.3-0.4,0.4c-0.2,0.3-0.5,0.6-0.6,1l-0.3,0.5l-0.2,0.5c-0.7,1.4-1,3.1-0.9,4.6  c0.1,0.8,0.1,1.6,0.4,2.3c0.1,0.4,0.3,0.7,0.4,1.1c0.1,0.2,0.2,0.3,0.3,0.5c0.1,0.2,0.2,0.3,0.3,0.5c0.8,1.3,2.1,2.4,3.6,2.9  c0.7,0.3,1.5,0.4,2.3,0.4c0.4,0,0.7-0.1,1.1-0.1c0.4-0.1,0.8-0.2,1.1-0.4c1.4-0.7,2.7-2.1,2.9-3.8l0-0.1c0.1-0.6,0.6-1,1.2-0.9  c0.5,0.1,0.9,0.5,0.9,1c0,0.6,0,1.3-0.1,1.9c-0.1,0.6-0.3,1.2-0.6,1.8c-0.3,0.6-0.6,1.1-1,1.6c-0.4,0.5-0.9,0.9-1.4,1.3  c-0.5,0.4-1.1,0.7-1.7,1c-0.6,0.3-1.3,0.5-1.9,0.6c-1.3,0.3-2.6,0.3-3.9,0c-2.6-0.5-4.9-1.8-6.7-3.8c-0.2-0.2-0.4-0.5-0.6-0.8  c-0.2-0.3-0.4-0.5-0.6-0.8c-0.3-0.6-0.7-1.1-0.9-1.7c-0.6-1.2-0.9-2.5-1.2-3.7c-0.1-0.6-0.2-1.3-0.2-1.9c0-0.3,0-0.6,0-1l0-1  c0-0.3,0-0.6,0.1-1l0.1-1l0.2-1l0.1-0.5l0.1-0.5l0.3-0.9c0.1-0.3,0.2-0.6,0.4-0.9c0.2-0.6,0.6-1.2,0.9-1.8c0.2-0.3,0.4-0.6,0.5-0.9  c0.2-0.3,0.4-0.6,0.6-0.8l0.6-0.8c0.2-0.3,0.5-0.5,0.7-0.7c1.8-1.9,4.1-3.4,6.5-4.3c2.4-1,4.9-1.5,7.5-1.6c1.3,0,2.6,0,3.8,0.1  c0.6,0.1,1.3,0.2,1.9,0.3c0.3,0.1,0.6,0.1,0.9,0.2c0.3,0.1,0.6,0.1,0.9,0.2l1.8,0.6c0.6,0.2,1.2,0.5,1.8,0.7l0.4,0.2  c0.1,0.1,0.3,0.1,0.4,0.2l0.8,0.4l0.8,0.5l0.8,0.5c1.1,0.7,2.1,1.4,3.1,2.2c0.5,0.4,0.9,0.8,1.4,1.3c0.5,0.4,0.9,0.9,1.3,1.4  c1.7,1.9,3.2,3.9,4.4,6.1c0.6,1.1,1.1,2.2,1.6,3.4l0.3,0.9l0.3,0.9l0.3,0.9l0.1,0.5l0.1,0.5c0.7,2.4,0.9,5,0.9,7.6  c0,0.6,0,1.3-0.1,1.9c-0.1,0.6-0.1,1.3-0.2,1.9l-0.3,1.9c-0.1,0.6-0.3,1.2-0.4,1.8c-0.6,2.4-1.5,4.8-2.6,7c-1.1,2.2-2.5,4.3-4,6.2  c-1.5,1.9-3.3,3.7-5.2,5.3l-0.7,0.6c-0.2,0.2-0.5,0.4-0.7,0.6c-0.5,0.4-1,0.8-1.5,1.1l-1.6,1c-0.5,0.3-1.1,0.6-1.6,0.9  c-2.2,1.2-4.4,2.1-6.7,2.8c-4.6,1.4-9.5,2.1-14.2,1.8c-2.4-0.1-4.7-0.4-7-0.8c-2.3-0.5-4.6-1.1-6.8-1.9c-2.2-0.8-4.3-1.8-6.3-2.9  c-0.5-0.3-1-0.5-1.5-0.8l-1.5-0.9c-1-0.6-1.9-1.2-2.8-1.9c-3.7-2.7-7-5.8-9.8-9.1c-2.9-3.4-5.4-7-7.3-11c-1.9-4-3.3-8.3-3.6-12.7  c0-0.6,0.4-1.1,1-1.1C8.2,36.6,8.6,36.9,8.8,37.3L8.8,37.3z"/>
    <text x="0" y="115" fill="#000000" font-size="5px" font-weight="bold" font-family="'Helvetica Neue', Helvetica, Arial-Unicode, Arial, Sans-serif">
    Created by Wuppdidu</text>
    <text x="0" y="120" fill="#000000" font-size="5px" font-weight="bold" font-family="'Helvetica Neue', Helvetica, Arial-Unicode, Arial, Sans-serif">from the Noun Project</text>
</svg>