<svg xmlns="http://www.w3.org/2000/svg" viewBox="0 0 32 32" id="email"><rect width="30" height="22" x="1" y="5" fill="#ffd766" rx="3" ry="3"></rect><path fill="#f2c861" d="M31 8v16a3 3 0 0 1-3 3H16V5h12.74a2.58 2.58 0 0 1 .55.2 2.78 2.78 0 0 1 .47.28l.21.17A3 3 0 0 1 31 8Z"></path><path fill="#f7931e" d="M28 5H4a3 3 0 0 0-2.73 1.76l14 10A1.31 1.31 0 0 0 16 17a1.26 1.26 0 0 0 .74-.24l14-10A3 3 0 0 0 28 5Z"></path><path fill="#e5811f" d="M16 17a1.26 1.26 0 0 0 .74-.24l14-10A3 3 0 0 0 28 5H16Z"></path></svg>