<svg xmlns="http://www.w3.org/2000/svg" viewBox="0 0 32 32" id="Linkedin"><g fill="#595bd4" class="color414753 svgShape"><path d="M16 32c8.837 0 16-7.163 16-16S24.837 0 16 0 0 7.163 0 16s7.163 16 16 16zM16 .75C24.409.75 31.25 7.591 31.25 16S24.409 31.25 16 31.25.75 24.409.75 16 7.591.75 16 .75z" fill="#fe9526" class="color000000 svgShape"></path><path d="M16 29.57c7.495 0 13.57-6.076 13.57-13.57 0-7.495-6.076-13.57-13.57-13.57S2.43 8.505 2.43 16 8.505 29.57 16 29.57zm0-26.39c7.069 0 12.82 5.751 12.82 12.82S23.069 28.82 16 28.82 3.18 23.069 3.18 16 8.931 3.18 16 3.18z" fill="#fe9526" class="color000000 svgShape"></path><path d="M16.814 21.474v-4.88c0-.26.019-.521.096-.708.21-.522.687-1.062 1.489-1.062 1.051 0 1.471.801 1.471 1.975v4.675h2.904v-5.01c0-2.684-1.433-3.933-3.343-3.933-1.542 0-2.232.848-2.617 1.443v-1.238H13.91c.039.82 0 8.737 0 8.737l2.904.001zM10.831 11.545h.018c1.012 0 1.643-.672 1.643-1.51-.019-.857-.631-1.509-1.624-1.509s-1.643.652-1.643 1.509c.001.838.631 1.51 1.606 1.51zM9.398 12.737h2.904v8.737H9.398z" fill="#fe9526" class="color000000 svgShape"></path></g></svg>