<svg width="148" height="200" xmlns="http://www.w3.org/2000/svg" xmlns:xlink="http://www.w3.org/1999/xlink" xml:space="preserve" overflow="hidden"><defs><clipPath id="clip0"><rect x="0" y="0" width="148" height="200"/></clipPath><clipPath id="clip1"><rect x="0" y="0" width="147" height="199"/></clipPath><clipPath id="clip2"><rect x="0" y="0" width="148" height="199"/></clipPath><clipPath id="clip3"><rect x="0" y="0" width="148" height="199"/></clipPath></defs><g clip-path="url(#clip0)"><g clip-path="url(#clip1)"><g clip-path="url(#clip2)"><g clip-path="url(#clip3)"><path d="M49.9145 65.2487C49.9145 65.2487 51.0176 69.3411 51.2933 72.3294 51.5691 75.3176 49.9993 77.954 49.8223 77.7083 49.3673 77.0763 48.6838 76.0151 48.2589 76.2372 45.1762 77.8521 43.4787 84.0561 43.4047 84.0743 41.9487 84.422 24.299 88.5637 18.4544 94.1862 12.2579 100.147 8.03564 105.948 6.77917 126.095 5.99588 138.657 7.44872 151.708 10.6033 161.204 12.5079 166.936 15.3127 171.163 17.8213 173.802L18.8793 188.883C18.8793 188.883 81.7052 194.104 109.471 188.715 109.897 188.632 110.177 188.223 110.101 187.796L109.306 183.332C109.306 183.332 131.938 187.504 138.204 173.562 142.998 162.893 139.288 150.353 135.57 140.791 132.532 132.975 129.731 126.997 129.731 126.997 129.731 126.997 120.593 104.447 111.479 94.3536 107.356 89.788 95.2828 88.1227 85.8233 85.9392 84.8426 85.7128 84.3104 81.9852 83.2943 81.8017 83.2943 81.8017 81.6998 84.1248 81.2717 83.0893 80.5463 81.3371 81.6859 78.9519 82.6054 74.0322 84.0979 66.0459 50.9414 65.3023 50.9414 65.3023L49.9145 65.2487Z" fill="#FFFFFF" fill-rule="nonzero" fill-opacity="1" transform="scale(1 1.0025)"/><path d="M81.4552 151.387C78.4422 149.083 75.4528 146.324 72.0504 142.707 70.1126 141.496 70.7928 145.153 70.6061 146.139 70.5439 148.199 70.4784 150.327 70.1566 152.34 70.0761 152.782 70.4366 153.228 70.8873 153.238 74.2972 153.376 77.0731 153.203 81.0689 152.776 81.7449 152.721 82.0099 151.782 81.4552 151.387Z" fill="#FFFFFF" fill-rule="nonzero" fill-opacity="1" transform="scale(1 1.0025)"/><path d="M85.8813 141.808C84.9499 137.319 84.6291 132.597 83.3887 128.247 79.2695 122.041 74.353 116.251 71.0976 109.457 70.9355 109.112 70.5471 108.936 70.1812 109.041 69.8153 109.146 69.5793 109.501 69.6244 109.879 70.1415 114.207 70.4913 118.76 70.692 123.795 72.5021 127.371 75.0912 130.678 77.5742 133.951 79.8403 136.812 82.3157 139.467 84.4928 142.396 84.9456 143.043 86.0347 142.588 85.8813 141.808Z" fill="#FFFFFF" fill-rule="nonzero" fill-opacity="1" transform="scale(1 1.0025)"/><path d="M70.0181 105.474C70.2295 105.474 70.4355 105.387 70.5836 105.229 72.0042 103.714 74.0462 104.043 75.5097 104.168 76.3703 104.166 76.4379 103.471 76.1739 102.876 76.0763 102.656 76.1042 102.392 76.263 102.212 76.4486 102.002 76.4582 101.58 76.293 101.216 75.7265 99.8505 76.1943 99.2057 77.4658 97.975 79.0967 96.5565 78.8113 93.242 77.2072 93.3021 75.9743 93.1658 75.0827 94.1133 74.1556 94.7163 73.3691 95.2764 72.5021 95.9599 71.604 96.1477 71.4495 96.1777 71.2918 96.2185 71.163 96.285 70.854 96.4438 70.4838 96.4299 70.2166 96.2067 68.0352 94.3847 67.2809 93.3868 66.5513 93.4995 65.915 93.5982 65.297 94.5414 63.7658 96.52 63.0061 97.5222 66.5191 100.223 67.0696 101.302 68.0095 102.547 69.0428 103.595 69.4838 105.009 69.5814 105.328 69.6844 105.476 70.0181 105.474Z" fill="#FFFFFF" fill-rule="nonzero" fill-opacity="1" transform="scale(1 1.0025)"/><path d="M87.1066 180.481C86.9982 180.285 86.8115 180.146 86.5937 180.098 83.3114 179.38 80.3779 178.557 77.6203 177.579 77.2962 177.274 77.0205 176.873 76.5055 177.083 73.8841 178.061 71.457 178.9 69.0868 179.65 68.7187 179.767 68.4923 180.136 68.5556 180.516 68.8035 186.847 67.6307 184.907 72.7983 188.819 77.0602 192.105 79.262 194.449 83.2149 189.134 84.7138 187.371 86.3169 186.054 87.127 184.303 87.0701 183.051 87.2837 181.703 87.1066 180.481Z" fill="#FFFFFF" fill-rule="nonzero" fill-opacity="1" transform="scale(1 1.0025)"/><path d="M77.2576 133.721C75.4453 131.382 73.5858 128.83 72.2596 126.022 72.103 125.689 71.7338 125.513 71.3765 125.598 71.0192 125.684 70.7714 126.008 70.7821 126.376 71.2639 131.683 70.2971 137.618 71.0868 142.579 75.367 145.599 78.7147 149.671 83.2868 152.363 84.261 152.627 85.3931 152.157 86.3148 152.117 86.7257 152.055 87.0143 151.681 86.9714 151.268 86.7547 149.209 86.6624 147.192 86.3909 145.124 83.4145 141.385 80.1858 137.576 77.2576 133.721Z" fill="#FFFFFF" fill-rule="nonzero" fill-opacity="1" transform="scale(1 1.0025)"/><path d="M70.3121 107.864C72.4141 112.613 75.6138 116.993 78.66 121.105 79.6279 122.419 80.6247 123.764 81.5603 125.11 82.0045 125.785 83.1269 125.326 82.9606 124.53 82.0829 119.079 80.1043 113.304 78.2748 107.975 77.9926 107.121 77.2791 106.163 77.5248 105.41 77.7791 104.443 76.8595 104.303 76.1911 104.053 73.9496 103.031 71.8916 104.739 69.8926 105.502 68.6844 106.118 70.0761 107.018 70.3121 107.864Z" fill="#FFFFFF" fill-rule="nonzero" fill-opacity="1" transform="scale(1 1.0025)"/><path d="M77.1514 93.5456C78.8746 93.5886 77.748 95.6627 78.5517 96.27 79.6139 96.7614 80.9519 94.58 80.7073 93.5564 80.2116 92.8525 79.6171 90.4962 78.7705 90.4908 78.1031 90.5413 78.0216 91.2934 77.4164 91.6164 76.7007 92.0188 75.7404 93.389 77.1514 93.5456Z" fill="#FFFFFF" fill-rule="nonzero" fill-opacity="1" transform="scale(1 1.0025)"/><path d="M65.8592 92.6207C62.3301 89.9554 63.3484 88.7354 60.5576 93.08 60.3848 93.375 59.9631 93.8107 60.1048 94.1894 60.6917 95.0736 62.0158 95.3172 62.7808 96.0833 62.946 96.5919 63.6821 96.7099 63.9954 96.2689 64.4042 95.3772 66.8989 93.4448 65.8592 92.6207Z" fill="#FFFFFF" fill-rule="nonzero" fill-opacity="1" transform="scale(1 1.0025)"/><path d="M109.785 187.982C109.763 186.66 109.417 185.503 109.421 184.193 109.426 183.798 109.133 183.462 108.741 183.414 101.733 182.806 94.4781 181.189 87.5487 180.594 86.7128 181.812 87.8481 183.836 86.9489 185.046 85.6184 186.958 83.9499 188.735 82.4767 190.303 82.2706 190.522 81.9423 190.834 82.0528 191.113 83.2996 192.963 111.008 190.923 109.785 187.982Z" fill="#FFFFFF" fill-rule="nonzero" fill-opacity="1" transform="scale(1 1.0025)"/><path d="M73.7586 189.867C72.441 188.868 71.1952 187.81 69.8636 186.825 68.3346 185.843 68.3142 185.428 68.4698 183.638 68.5535 182.765 68.576 181.797 68.7273 180.953 68.8443 180.398 68.267 179.884 67.7294 180.073 56.0091 183.794 34.1126 188.108 19.1626 175.2 17.1797 174.24 18.1153 177.516 18.0231 178.492 18.2988 180.134 17.8718 189.302 19.5714 189.456 37.4968 190.654 56.9373 191.333 75.0204 191.525 75.7361 191.556 74.3562 190.289 73.7586 189.867Z" fill="#FFFFFF" fill-rule="nonzero" fill-opacity="1" transform="scale(1 1.0025)"/><path d="M138.595 170.917C142.242 165.019 140.724 155.803 137.793 147.43 129.993 127.465 123.793 110.843 111.594 95.2935 106.108 89.1324 95.1412 88.7719 88.0423 86.6903 87.4843 86.5412 86.5927 86.186 85.8416 85.8115 85.6355 85.7085 85.3931 85.4531 85.3051 85.2396 84.9048 84.2664 84.5025 83.3876 84.0797 82.408 83.8748 81.8715 83.202 81.9724 82.8619 82.437 81.8554 83.7213 79.7749 85.4091 77.7587 86.7128 77.4572 87.0197 75.0269 89.9146 74.5215 90.6496 74.0172 91.3846 72.942 93.2334 72.1083 94.4137 72.0096 94.5532 71.8111 94.5736 71.6866 94.4577 70.134 93.0177 67.0352 88.1614 64.9482 87.0058 64.6467 86.8384 64.136 86.2933 63.8452 86.0916 59.1455 82.7149 52.6153 81.3876 49.0862 76.7469 48.143 75.7651 47.7739 77.072 47.172 77.6686 45.7288 79.4734 44.217 81.3865 43.6472 83.7245 43.6021 83.8952 42.6611 84.1012 42.4648 84.143 34.0343 85.9424 21.8526 89.5015 14.6024 98.0748 3.33486 115.782 5.3714 145.813 11.2235 162.351 13.5294 170.563 20.5339 177.083 28.2122 180.169 28.7305 180.387 29.3421 179.927 29.2669 179.366 28.9579 169.5 33.2842 159.567 39.3906 152.569 40.1728 151.336 38.5161 151.265 37.6653 150.738 35.2242 148.938 31.59 148.215 30.4848 148.233 28.8667 148.197 23.8451 146.642 25.2067 144.024 26.2025 143.417 31.3099 144.901 30.0492 142.767 27.4386 140.362 24.6584 142.679 21.8622 142.602 20.5264 142.556 18.64 142.59 18.6593 141.305 18.7709 140.646 19.4126 139.723 20.7581 139.265 21.4845 139.044 21.5232 138.279 20.7796 138.132 18.4984 137.603 17.6851 136.822 17.6947 136.426 17.5606 135.283 22.5844 134.421 24.1563 134.222 25.1692 134.05 26.2164 133.873 27.2476 133.676 28.0319 133.552 28.0856 132.359 27.313 132.167 24.2829 131.29 22.4921 130.002 22.8784 128.61 23.9642 127.905 25.843 128.094 26.93 128.144 32.6876 127.329 36.4646 131.807 38.1749 132.433 38.6728 132.615 39.2147 133.209 39.7673 133.621 42.2448 135.21 43.3435 136.831 45.0582 139.519 47.8726 143.47 51.1624 147.096 54.1625 150.834 54.2366 151.163 54.5166 151.407 54.8525 151.436 57.139 151.633 59.4674 151.953 61.7185 152.262 62.9536 152.205 70.5418 154.095 70.2563 152.422 71.2821 138.152 70.6437 120.308 69.4301 104.799 69.1136 103.985 65.3742 99.6081 63.6542 97.2303 63.1027 95.8858 61.093 95.0049 60.3033 94.4663 59.9771 94.3096 59.4899 93.8482 59.5522 93.7549 60.9707 91.625 62.4364 89.1936 63.034 90.0928 65.1639 92.64 67.767 94.036 70.2156 96.4095 72.2221 97.049 74.0741 94.55 75.8262 93.7645 76.0687 93.6347 76.2243 93.3858 76.2351 93.1111 76.3316 92.1025 78.7523 90.5659 78.8177 90.4962 78.9529 90.3535 79.189 90.3932 79.2738 90.5692 79.8081 91.6819 80.4208 92.8407 81.0099 93.9502 81.158 94.2291 81.0303 94.5682 80.7406 94.6948 80.3811 94.8526 80.012 95.1412 79.9111 95.3676 79.5216 96.1927 77.1525 97.5747 76.4454 99.0919 75.866 100.336 76.3402 101.391 76.807 102.541 77.1546 103.394 77.5377 104.207 77.4272 104.885 77.6696 108.156 79.233 111.123 80.2094 114.219 82.7052 120.646 83.5336 127.525 84.7772 134.237 85.8019 139.786 86.9854 145.419 87.333 151.088 87.3502 151.534 87.7976 151.893 88.2376 151.806 90.4887 151.422 92.6958 150.984 94.9255 150.576 96.4942 149.391 98.2947 148.55 100.496 148.42 102.623 148.383 103.64 146.939 105.807 147.661 106.904 147.536 108.122 147.136 109.255 147.161 110.561 146.923 113.376 147.109 113.376 147.109 113.376 147.109 115.156 147.998 115.962 149.437 116.016 149.755 116.265 150.01 116.589 150.068 119.318 150.354 119.879 152.228 120.149 154.726 120.419 155.927 121.078 157.278 120.987 158.437 120.963 158.729 119.44 158.501 118.616 158.913 115.076 161.643 111.885 165.096 107.1 164.926 101.992 166.305 123.301 170.639 126.394 181.556 126.505 181.877 126.806 182.08 127.129 182.08 131.05 181.055 136.635 177.278 137.756 173.242 137.81 173.067 138.497 171.077 138.595 170.917Z" fill="#FFFFFF" fill-rule="nonzero" fill-opacity="1" transform="scale(1 1.0025)"/><path d="M102.053 148.101C104.542 146.906 105.639 147.457 106.973 148.101 108.307 148.745 111.157 150.538 111.709 152.238 112.261 153.939 111.709 155.549 111.755 156.285 111.802 157.021 112.123 157.48 112.17 158.721 112.216 159.963 112.031 160.929 111.48 161.112 110.928 161.295 108.031 162.261 106.79 161.893 105.548 161.525 104.858 159.181 103.617 158.123 102.375 157.065 100.323 155.423 99.7776 153.708 99.1338 151.687 99.5651 149.296 102.053 148.101Z" fill="#FFFFFF" fill-rule="nonzero" fill-opacity="1" transform="scale(1 1.0025)"/><path d="M103.065 149.733C104.518 148.601 106.651 149.342 108.031 150.652 109.613 152.155 110.583 154.906 109.112 155.848 107.64 156.79 105.058 156.015 103.939 154.538 102.789 153.021 101.709 150.79 103.065 149.733Z" fill="#FFFFFF" fill-rule="nonzero" fill-opacity="1" transform="scale(1 1.0025)"/><path d="M140.08 150.14C135.27 135.794 129.022 121.891 121.94 108.53 118.782 102.949 115.617 97.094 110.804 92.7527 105.162 88.538 97.3569 87.2086 90.5284 86.1195 89.3427 85.9574 88.0594 85.245 86.7933 84.8887 86.3566 84.7654 86.0057 84.9156 85.7815 85.1817 85.1666 83.9091 84.5003 82.6612 83.9359 81.365 83.7653 80.9734 83.2009 81.0582 83.0078 81.365 82.7546 81.7653 82.4713 82.144 82.1644 82.5046 82.129 81.5346 82.0646 80.5796 82.1784 79.5925 82.3028 78.5119 82.6483 77.4905 83.0346 76.4808 83.2385 75.9486 82.541 75.4765 82.0904 75.7554 80.9637 76.4539 80.4433 77.8424 80.1107 79.0667 79.7652 80.38 79.2319 83.2524 80.3886 84.2385 79.6 84.9027 78.762 85.5143 77.9443 86.1098 77.719 86.2911 77.3596 86.4478 77.2565 86.7279 75.1835 88.8073 73.6663 91.4801 72.0053 93.8987 69.6662 91.3685 67.7981 88.406 65.0491 86.2804 64.9493 86.1087 64.7648 85.9778 64.5652 85.9285 60.3526 82.9026 55.0789 81.5571 51.1227 78.1493 52.8567 76.8445 52.4629 62.2926 49.2096 63.298 48.4091 63.5265 48.1323 64.3667 48.4885 65.0706 50.1785 68.7166 49.6527 72.824 49.6452 76.7125 49.4124 76.4572 49.1849 76.1943 48.9671 75.9217 48.8759 75.7361 48.6677 75.6438 48.4714 75.6889 47.3512 75.8799 46.3104 77.1149 45.585 77.9379 44.2685 79.4744 43.1268 81.1451 42.5152 83.1119 31.0149 85.584 17.993 89.8342 11.731 100.552 8.87687 105.775 7.45945 111.744 6.60212 117.59 4.41107 134.099 4.89607 161.861 17.1314 174.339 16.5745 175.004 16.6925 176.359 16.67 177.125 16.6153 181.301 16.9211 185.508 17.7913 189.598 18.0821 190.972 20.1808 190.39 19.8954 189.017 18.9598 184.65 18.919 180.232 18.6518 175.787 32.0889 187.387 52.0273 185.87 67.9612 180.813 67.8217 181.572 67.7981 182.35 67.7327 183.118 67.7305 183.148 67.7026 183.491 67.6962 183.558 67.5234 185.545 67.5942 186.292 69.4409 187.479 71.6512 189.127 73.7532 191.048 76.1492 192.426 77.2222 193.043 78.3939 193.588 79.6558 193.314 80.835 193.056 81.7824 192.174 82.5829 191.321 84.3286 189.46 86.1227 187.587 87.5841 185.488 88.1324 184.701 88.0648 184.157 88.0562 183.238 88.0508 182.557 88.0391 181.875 88.0391 181.194 94.8408 182.543 101.745 183.318 108.643 184.182 108.627 185.438 108.93 186.431 108.985 187.622 109.036 188.25 108.967 188.763 109.303 189.32 109.688 189.958 110.514 189.883 110.914 189.32 111.758 188.084 110.763 185.785 110.4 184.37 120.074 185.429 131.669 184.754 137.739 176.124 142.851 168.564 142.853 158.572 140.08 150.14ZM83.3651 82.7074C84.1033 84.4799 86.127 87.6549 85.7686 89.494 85.4381 91.0316 84.6988 92.5799 84.0947 94.0231 83.7846 94.7646 83.467 95.5189 83.0636 96.2174 81.2073 93.3439 80.0206 90.0992 78.454 87.0809 78.5774 86.9714 78.7319 86.8287 78.7426 86.6742 80.4412 85.5776 82.1204 84.2975 83.3651 82.7074ZM75.9808 101.566C74.6964 99.813 73.2167 98.2078 71.6577 96.7002 72.8702 96.447 74.058 95.5114 74.9786 94.8665 75.5065 94.4974 76.4518 93.6444 77.161 93.7484 77.9915 93.8697 77.9969 95.1036 77.9486 95.726 77.8939 96.4288 77.6578 96.9857 77.1675 97.5125 75.852 98.7872 75.2125 99.7175 75.9808 101.566ZM63.4761 96.1165C63.4503 96.0028 63.3881 95.8934 63.2765 95.8075 62.4106 95.1466 61.4943 94.5714 60.5275 94.0811 61.299 92.9147 62.0544 91.7559 62.8548 90.6067 63.7079 91.567 64.6585 92.4201 65.7133 93.1701 64.9665 94.1519 64.2218 95.1337 63.4761 96.1165ZM66.5856 94.2012C70.0385 96.6734 73.2768 99.8355 75.5773 103.394 73.485 103.214 71.442 103.673 70.016 105.194 69.5289 103.635 68.3786 102.267 67.4118 100.986 66.4064 99.6542 65.3302 98.3688 64.3753 96.9996 65.1124 96.0672 65.8485 95.1348 66.5856 94.2012ZM71.4441 144.344C71.4592 143.976 71.472 143.607 71.4849 143.239 74.4367 146.378 77.543 149.373 80.9841 152.004 77.645 152.375 74.2575 152.616 70.9227 152.463 71.3508 149.802 71.3336 147.017 71.4441 144.344ZM83.6816 151.694C79.1944 149.054 75.7812 144.925 71.5343 141.945 71.7081 136.75 71.7135 131.549 71.5579 126.352 72.8852 129.163 74.7221 131.716 76.6449 134.197 79.6021 137.87 82.4252 141.792 85.6227 145.225 85.8909 147.259 85.9853 149.307 86.201 151.35 85.3619 151.475 84.5229 151.589 83.6816 151.694ZM78.1825 133.471C75.7436 130.392 73.4871 127.141 71.4656 123.765 71.28 119.094 70.9484 114.43 70.3937 109.788 73.2972 115.98 77.6997 121.246 81.5131 126.872 81.9166 127.479 82.2953 128.374 82.9059 128.857 83.5765 133.226 84.3941 137.573 85.113 141.934 82.9466 139.012 80.4315 136.31 78.1825 133.471ZM81.2835 123.378C78.4132 119.399 75.3574 115.538 72.9099 111.275 71.8755 109.487 71.075 107.603 70.1651 105.764 71.8948 105.119 73.7232 104.207 75.6127 104.665 76.1449 104.795 76.6074 105.166 77.1514 105.129 76.8252 106.13 77.2244 107.267 77.5377 108.219 77.9712 109.541 78.4079 110.859 78.8703 112.171 80.3167 116.258 81.4369 120.396 82.1966 124.667 81.8962 124.235 81.5904 123.806 81.2835 123.378ZM78.9143 95.0543C78.8338 93.6626 77.9991 92.7506 76.8467 92.8343 77.381 92.1347 78.2995 91.743 78.7255 90.9436 79.2362 91.9565 79.7105 92.9351 80.2116 93.9598 79.9948 94.7828 79.5817 95.5414 78.8832 96.0135 78.9208 95.6906 78.9326 95.3633 78.9143 95.0543ZM67.4741 90.3331C68.1629 91.243 68.8207 92.1776 69.5278 93.0735 70.09 93.786 70.7027 94.8075 71.5407 95.2109 72.0042 95.4341 72.4914 95.0564 72.4023 94.594 74.3605 92.5799 75.691 90.0316 77.5763 87.9639 77.7297 88.6453 77.9754 89.3095 78.263 89.9597 78.1321 89.9769 78.0119 90.0552 77.939 90.2226 77.4347 91.4276 75.691 91.7795 75.6342 93.242 73.9464 94.1444 72.6362 95.4438 70.7349 95.8311 69.4473 94.6819 68.1232 93.5263 66.6468 92.6433 66.6092 92.5757 66.5556 92.5124 66.4794 92.4609 65.3506 91.6883 64.3302 90.7741 63.4418 89.7376 63.915 89.023 64.3645 88.2934 64.7401 87.5304 65.7369 88.3416 66.6586 89.2569 67.4741 90.3331ZM45.2063 81.8447C45.7739 80.7727 46.4928 79.8135 47.2149 78.8446 47.6559 78.2534 48.29 77.6385 48.687 76.9583 52.361 81.7728 58.7936 83.2396 63.5416 86.6281 61.3494 89.6485 59.2753 92.7988 57.1755 95.8912 52.1195 93.5049 48.774 88.8459 45.0432 84.8544 44.85 84.6484 44.5335 84.4274 44.4208 84.1495 44.3865 84.0658 44.3865 83.9853 44.4101 83.8812 44.541 83.187 44.8822 82.4777 45.2063 81.8447ZM8.05818 122.773C8.91335 114.428 10.3962 105.571 15.42 98.6306 22.0715 90.8149 32.9591 87.2547 42.7126 85.1731 47.0894 89.949 51.0938 95.4685 57.2914 97.9707 57.6712 98.1198 58.1551 97.8709 58.3493 97.5404 58.8644 96.6616 59.4084 95.7989 59.9631 94.9438 60.946 95.4395 61.8784 96.0221 62.7583 96.6927 62.8409 96.756 62.9224 96.7839 62.9997 96.7893 62.9493 96.9535 62.9729 97.1659 63.0619 97.2915 64.0834 98.7432 65.2508 100.087 66.3861 101.448 67.2606 102.498 68.0782 103.588 68.9022 104.673 68.7756 104.893 68.9087 105.187 68.9237 105.428 68.87 105.494 68.8336 105.579 68.8271 105.684 68.737 107.216 69.0085 108.77 69.1394 110.295 69.2692 111.795 69.3733 113.298 69.487 114.799 70.4935 127.311 70.089 139.869 69.4838 152.384 64.6188 152.024 59.785 151.084 54.9211 150.664 54.7816 150.046 54.1175 149.512 53.7237 149.05 53.052 148.274 52.3749 147.5 51.7107 146.717 49.7214 144.158 47.5668 141.721 45.6945 139.072 44.0442 136.485 42.8489 134.678 40.1889 132.968 40.0945 131.959 39.7501 130.977 39.5162 129.994 39.0205 127.935 38.6964 125.842 38.3992 123.746 37.9432 120.59 37.0236 117.677 35.7392 114.758 35.6791 114.62 35.4678 114.72 35.5032 114.857 36.2768 117.921 36.9217 121.008 37.2328 124.155 37.4914 126.727 37.7618 129.237 38.4131 131.774 33.5203 128.408 33.3572 127.429 27.078 127.469 25.5319 127.395 23.7915 127.516 22.579 128.578 22.4921 128.654 22.5532 128.8 22.653 128.82 22.0189 131.259 25.2218 132.379 27.1049 132.914 25.0168 133.314 22.9127 133.62 20.8279 134.023 15.8739 134.917 15.4479 137.692 20.6079 138.888 19.3514 139.315 18.0971 139.994 17.8964 141.177 17.5563 143.183 20.6079 143.434 21.8987 143.378 23.1058 143.325 24.2904 143.032 25.4675 142.779 26.9353 142.422 28.3174 142.099 29.4955 143.31 27.945 143.337 26.2797 143.265 24.8097 143.83 24.6102 143.943 24.725 144.124 24.9235 144.135 24.2711 145.117 24.6477 146.377 25.5458 147.193 26.8656 148.394 28.7015 148.88 30.4311 149.006 31.3958 149.077 32.3872 149.081 33.3143 149.385 33.8733 149.569 34.4066 149.825 34.9313 150.096 26.0544 149.987 17.2033 154.724 11.79 161.676 7.61181 149.076 7.17832 135.807 8.05818 122.773ZM38.6567 150.252C36.765 149.401 35.0225 148.067 32.9559 147.663 31.2198 147.358 29.3957 147.569 27.7487 146.864 26.4461 146.306 25.6123 145.564 25.3441 144.235 27.6317 144.556 29.9622 144.432 32.2552 144.72 33.5761 144.865 34.8873 145.097 36.177 145.414 37.3884 145.713 38.5312 146.224 39.7372 146.527 40.3435 146.679 40.6503 145.882 40.1514 145.544 39.0923 144.827 37.7468 144.483 36.5193 144.174 35.427 143.898 34.3132 143.712 33.1941 143.577 32.1254 143.025 30.9494 142.704 29.9891 141.928 28.6049 140.811 27.0287 141.033 25.3967 141.379 24.3848 141.593 23.3794 141.847 22.3504 141.968 21.4384 142.074 20.2527 142.224 19.4072 141.758 18.2033 141.094 20.8761 139.751 22.1337 139.119 24.4374 139.301 26.7293 138.936 28.9987 138.602 29.8786 138.469 30.429 138.332 31.3078 138.647 32.9666 139.239 34.2574 140.548 35.9174 141.166 36.4742 141.374 36.8637 140.459 36.3251 140.2 34.1866 139.174 32.134 136.565 29.5105 137.176 27.8796 137.554 26.136 137.745 24.4642 137.844 22.8311 137.941 21.1873 137.866 19.6486 137.269 19.3686 137.153 17.6668 136.634 18.4469 136.184 19.1465 135.634 20.2281 135.43 21.0714 135.235 22.0918 134.999 23.1316 134.881 24.1595 134.69 27.268 134.208 31.591 132.774 34.5096 134.287 35.9549 135.099 37.0837 136.368 38.5408 137.168 38.9775 137.409 39.3445 136.772 38.9292 136.503 36.0332 134.399 35.2328 132.414 31.1286 132.516 31.0707 132.415 30.9752 132.327 30.841 132.274 30.253 132.041 29.6071 132.024 28.9858 131.924 27.3066 131.593 22.8655 131.038 23.0747 128.705 24.3805 128.334 25.7379 128.514 27.078 128.626 28.5319 128.747 30.0642 128.669 31.4805 129.041 32.7113 129.365 33.7606 130.034 34.7735 130.785 35.9388 131.649 37.0934 132.51 38.3015 133.316 41.3081 135.216 42.4712 136.519 44.3017 139.531 46.9563 143.312 49.7922 147.011 52.8438 150.483 48.1205 150.024 43.3875 150.325 38.6567 150.252ZM12.1441 162.611C18.1239 156.118 26.5534 150.954 35.6276 151.487 35.8165 151.5 35.9624 151.444 36.0686 151.351 36.4785 151.375 36.8884 151.397 37.2972 151.422 37.7919 151.689 38.3069 151.926 38.8134 152.053 33.56 157.926 30.2058 165.408 28.8871 173.157 28.5169 175.247 28.2712 177.311 28.4944 179.447 20.8708 176.465 14.9607 170.23 12.1441 162.611ZM36.676 181.859C34.6276 181.478 32.5675 180.941 30.5578 180.238 30.5545 179.243 30.2788 178.204 30.2917 177.209 30.3078 175.92 30.4612 174.638 30.6822 173.37 31.8572 165.316 35.5719 157.855 40.6975 151.595 43.4122 151.696 46.1226 151.607 48.8362 151.764 58.3139 152.151 67.6168 154.833 77.1364 154.106 82.6355 153.753 88.0895 152.899 93.4856 151.806 95.0135 151.484 96.6208 151.355 98.0275 150.637 98.4578 150.807 98.799 151.088 99.1735 151.386 98.5458 154.083 100.524 156.608 102.635 158.049 102.537 158.178 102.483 158.344 102.5 158.548 102.727 161.155 101.554 163.329 99.6799 165.067 82.0217 174.494 56.8858 185.49 36.676 181.859ZM102.081 148.748C102.38 148.687 102.473 148.436 102.421 148.205 105.779 147.367 109.5 149.368 110.966 152.488 111.194 153.001 111.344 153.559 111.369 154.121 111.394 154.684 111.306 155.221 111.545 155.75 111.681 156.053 112.072 156.014 112.281 155.845 113.342 154.991 112.692 152.981 112.221 151.974 111.246 149.959 109.484 148.531 107.41 147.681 109.092 147.701 110.785 147.501 112.466 147.635 113.855 147.746 114.536 148.516 115.289 149.455 115.054 149.447 114.281 149.514 114.328 149.715 114.773 150.232 115.867 150.342 116.498 150.516 117.335 150.747 118.326 151.017 118.931 151.683 119.748 152.583 119.531 154.047 119.819 155.16 120.056 156.003 120.398 156.811 120.507 157.692 120.487 157.7 120.469 157.71 120.451 157.719 119.904 156.797 117.158 159.432 116.535 159.851 115.378 160.79 114.243 161.793 113 162.618 111.973 163.298 110.863 163.779 109.675 164.099 110.239 163.524 110.995 162.507 110.843 161.709 110.957 161.677 111.071 161.645 111.184 161.612 113.202 161.172 113.205 157.696 111.724 156.587 111.292 156.25 110.768 156.655 110.982 157.16 111.53 158.249 111.503 159.431 111.177 160.592 109.544 160.782 108.202 161.591 106.559 160.713 109.298 158.477 106.515 156.189 106.504 157.429 106.638 158.049 106.719 158.682 106.299 159.213 106.291 158.957 106.178 158.718 105.916 158.583 105.886 158.497 105.826 158.417 105.733 158.358 105.007 157.89 104.202 157.561 103.479 157.085 101.924 155.999 100.284 154.492 100.054 152.507 99.9707 151.46 100.473 150.639 100.874 149.721 101.148 149.553 101.518 149.213 101.548 148.848 101.727 148.817 101.904 148.784 102.081 148.748ZM86.3759 181.147C86.3759 182.195 86.362 183.245 86.3502 184.294 85.1988 185.804 83.9542 187.222 82.6505 188.602 81.9273 189.377 81.2588 190.234 80.4455 190.919 79.5581 191.667 78.7673 191.76 77.7287 191.26 75.5226 190.197 73.6867 188.471 71.7478 187.009 71.0182 186.46 70.0299 185.971 69.4473 185.256 69.3143 184.692 69.384 184.085 69.3615 183.505 69.4484 182.474 69.4924 181.423 69.3207 180.39 71.8326 179.594 74.3101 178.728 76.7758 177.811 76.8864 178.028 77.0784 178.211 77.3649 178.313 80.3425 179.367 83.3694 180.187 86.4285 180.855 86.3974 180.942 86.3759 181.037 86.3759 181.147ZM110.981 182.344C100.365 181.153 89.5885 180.135 79.3811 176.818 86.8201 173.89 94.1229 170.553 101.093 166.638 101.247 166.545 101.36 166.431 101.44 166.306 102.738 166.332 104.033 166.341 105.317 166.118 107.04 167.297 109.097 168.085 110.95 169.045 116.609 172.025 122.48 175.824 125.196 181.849 120.573 182.932 115.532 182.755 110.981 182.344ZM133.135 178.091C131.331 179.57 129.297 180.601 127.134 181.307 124.541 173.728 114.2 168.373 107.079 165.704 112.19 165.87 115.387 162.396 119.097 159.53 120.274 160.06 121.57 159.81 122.804 160.165 127.567 161.184 131.237 164.594 134.188 168.292 135.428 169.774 136.328 171.377 137.193 173.063 136.176 174.972 134.842 176.692 133.135 178.091ZM138.289 170.612C136.562 167.438 134.049 164.909 131.38 162.55 128.72 160.246 125.294 158.718 121.766 158.5 121.869 157.169 121.204 155.821 120.911 154.553 120.622 153.301 120.672 151.885 119.7 150.915 118.907 150.122 117.799 149.827 116.726 149.634 116.72 149.558 116.698 149.48 116.649 149.404 115.966 148.332 115.13 147.382 113.997 146.913 116.189 137.384 107.822 124.283 105.771 114.753 105.691 114.415 105.197 114.562 105.256 114.895 106.962 124.568 111.947 133.459 112.691 143.329 112.8 144.395 112.722 145.559 112.917 146.633 111.738 146.485 110.479 146.57 109.3 146.667 108.232 146.756 107.184 146.883 106.203 147.292 104.761 146.939 103.252 146.983 102.085 147.812 99.6445 148.168 96.6927 148.084 94.7925 149.814 92.5692 150.219 90.3406 150.663 88.112 151.042 87.7654 145.347 86.5809 139.694 85.5454 134.096 84.2932 127.325 83.4542 120.396 80.938 113.937 80.2953 112.285 79.6171 110.647 78.9744 108.997 78.4873 107.799 77.7051 106.316 77.7705 104.998 78.042 103.141 75.9271 101.007 76.7726 99.3602 77.2136 98.593 77.9883 98.1059 78.4529 97.3741 79.5173 96.9867 80.38 96.2088 80.8564 95.2034 82.246 97.6702 83.1859 99.4482 84.7482 95.8193 85.5765 93.9748 86.3255 92.052 86.9017 90.1121 87.2182 89.0466 86.9864 87.9961 86.5937 86.9897 87.7923 87.3759 88.9886 87.98 90.2204 88.1463 95.961 89.1067 106.6 90.7408 111.02 95.8129 113.848 98.8344 116.061 102.446 118.141 106.004 125.693 119.277 131.865 133.349 137.067 147.699 139.822 154.98 141.071 163.071 138.289 170.612Z" fill="#000000" fill-rule="nonzero" fill-opacity="1" transform="scale(1 1.0025)"/><path d="M105.107 156.331C106.552 157.125 109.019 157.44 110.083 155.849 111.732 153.085 108.041 148.837 105.2 148.557 105.183 148.498 105.136 148.452 105.055 148.456 99.9997 148.867 101.818 154.676 105.107 156.331ZM103.621 149.743C105.1 150.191 106.461 150.259 107.631 151.419 108.428 152.186 109.306 153.412 109.138 154.594 108.955 155.887 107.206 155.793 106.28 155.473 104.165 154.803 101.997 151.677 103.621 149.743Z" fill="#000000" fill-rule="nonzero" fill-opacity="1" transform="scale(1 1.0025)"/><path d="M-5045.81-1486C-5046.62-1487.67-5048.82-1490.22-5049.64-1491.85-5050.6-1493.4-5052.18-1494.61-5054.29-1495.09-5056.39-1495.55-5061.86-1495.01-5064.34-1496.08-5077.12-1501.65-5090.81-1496.41-5091.96-1479.23-5094.44-1474.33-5095.19-1472.03-5097.39-1467.01-5102.97-1464.67-5102.52-1460-5101.79-1458.12-5101.06-1456.24-5099.09-1453.94-5095.8-1454.11-5094.48-1453.75-5093.98-1454.21-5092.98-1453.19-5092.23-1452.42-5090.86-1450.8-5090.36-1449.86-5088.09-1445.5-5085.2-1441.73-5081.27-1438.71-5078.56-1436.67-5075.23-1435.42-5071.7-1434.84-5067.33-1434.12-5062.16-1433.21-5057.96-1434.44-5050-1437.56-5046.51-1443.2-5044.71-1450.34-5042.8-1457.85-5042.24-1467.09-5043.48-1477.81-5043.48-1477.81-5044.85-1484.39-5045.81-1486Z" fill="#FFFFFF" fill-rule="nonzero" fill-opacity="1" transform="matrix(1 0 0 1.0025 5136.42 1514.55)"/><path d="M-5062.79-1432.19C-5064.56-1432.08-5076.23-1433.51-5073.26-1436.61-5071.49-1437.39-5069.29-1435.81-5067.45-1435.59-5063.18-1434.59-5058.51-1435.1-5054.87-1437.66-5046.24-1443.5-5044.8-1454.66-5044.54-1465.86-5044.25-1476.79-5045.81-1484.8-5051.21-1493.17-5051.78-1492.94-5052.37-1492.79-5052.97-1492.72-5054.11-1492.04-5055.49-1492.04-5056.78-1492.05-5059.11-1492.04-5061.97-1492.35-5064.41-1492.66-5069.29-1493.33-5076.82-1494.07-5080.55-1490.74-5082.03-1489.16-5081.14-1486.66-5079.84-1485.57-5079.05-1485.02-5078.87-1483.63-5079.84-1483.18-5081.33-1482.22-5085.78-1482.77-5087.25-1482.14-5087.84-1481.51-5087.86-1480.58-5087.87-1479.75-5087.98-1476.11-5087.83-1472.44-5087.32-1468.82L-5087.32-1468.82C-5087.36-1467.66-5085.81-1462.61-5088.36-1463.95-5089.45-1464.95-5090.96-1465.09-5092.09-1465.45-5092.09-1465.45-5092.32-1465.54-5092.21-1465.34-5092.17-1465.25-5091.4-1464.35-5091.67-1464.17-5092.86-1464.88-5094.19-1465.31-5095.6-1465.32-5100.12-1465.49-5102.48-1460.8-5099.82-1457.34-5098.48-1455.63-5096.4-1455.58-5094.4-1455.53-5093.06-1455.71-5091.76-1454.78-5092.65-1453.37-5090.7-1451.57-5088.86-1449.44-5087.25-1447.28-5086.03-1445.64-5084.88-1443.35-5082.83-1442.82-5081.98-1442.62-5081.49-1442.21-5081.32-1441.58-5080.95-1439.83-5083.22-1439.19-5084.49-1439.91-5087.24-1441.17-5088.71-1444.05-5090.17-1446.53-5091.36-1448.54-5092.53-1450.74-5093.39-1452.95-5096.63-1452.6-5100.48-1453.38-5102.23-1456.42-5104.22-1459.58-5103.67-1464.47-5100.18-1466.32-5103.75-1473.83-5102.04-1483.14-5098.19-1490.39-5093.23-1499.74-5083.04-1505.9-5072.42-1505.68-5066-1505.68-5059.55-1503.76-5054.26-1500.08-5053.02-1499.04-5047.71-1495.64-5049.42-1494.01-5049.2-1493.84-5048.99-1493.66-5048.78-1493.49-5048.43-1493.17-5048.72-1492.55-5049.18-1492.57-5049.4-1492.58-5049.79-1492.77-5049.41-1492.45-5047.33-1490.72-5045.77-1488.65-5044.62-1486.36-5041.2-1479.59-5041.24-1470.88-5041.28-1463.24-5041.17-1454.91-5043.14-1445.45-5048.25-1439.17-5051.63-1435.02-5056.37-1432.27-5062.79-1432.19ZM-5092.09-1458.79C-5092.29-1458.8-5092.5-1458.85-5092.68-1458.96-5093.68-1459.54-5094.74-1459.88-5095.76-1460.42-5096.69-1460.88-5098.13-1461.81-5098.64-1460.48-5098.65-1460.45-5098.68-1460.45-5098.69-1460.47-5098.85-1461.2-5098.61-1461.63-5098.15-1461.85-5096.73-1462.51-5093.13-1461.29-5091.93-1461.05-5091.89-1461.04-5091.74-1461.02-5091.7-1461.01-5090.96-1460.83-5090.87-1460.05-5091.14-1459.47-5091.32-1459.09-5091.66-1458.8-5092.09-1458.79Z" fill="#000000" fill-rule="nonzero" fill-opacity="1" transform="matrix(1 0 0 1.0025 5136.42 1514.55)"/><path d="M-2123.95-819.11C-2125.59-819.139-2127.34-819.423-2128.62-820.504-2128.72-820.587-2128.75-820.716-2128.72-820.834-2128.69-820.956-2128.59-821.054-2128.47-821.084-2127.81-821.21-2127.13-821.291-2126.45-821.329-2126-821.364-2125.51-821.401-2125.05-821.465-2124.7-821.523-2124.33-821.602-2123.98-821.701-2123.45-821.86-2122.92-821.953-2122.37-821.979-2122.03-821.985-2121.68-821.911-2121.37-821.763-2121.08-821.602-2120.87-821.321-2120.8-820.995-2120.58-820.274-2121.22-819.641-2121.83-819.373-2122.2-819.238-2122.59-819.164-2122.98-819.151-2123.32-819.124-2123.65-819.11-2123.95-819.11Z" fill="#000000" fill-rule="nonzero" fill-opacity="1" transform="matrix(1 0 0 1.0025 2199.64 888.508)"/><path d="M-2122.59-831.878C-2123.94-831.83-2128.79-833.491-2126.83-835.302-2126.66-835.454-2126.45-835.538-2126.22-835.544-2126.05-835.543-2125.88-835.491-2125.74-835.397-2124.55-834.437-2122.33-832.764-2120.89-834.323-2119.49-836.019-2121.67-838.132-2122.65-838.616-2122.79-838.73-2122.83-838.918-2122.77-839.08-2122.68-839.334-2122.44-839.502-2122.18-839.497-2120.17-839.343-2118.56-837.464-2118.81-835.446-2118.92-833.506-2120.61-831.796-2122.59-831.878L-2122.59-831.878Z" fill="#000000" fill-rule="nonzero" fill-opacity="1" transform="matrix(1 0 0 1.0025 2199.64 888.508)"/><path d="M-2116.44-840.073C-2117.98-840.212-2118.45-842.176-2118.45-843.478-2118.4-847.979-2114.46-847.969-2114.41-843.478-2114.42-842.177-2114.88-840.21-2116.44-840.073L-2116.44-840.073Z" fill="#000000" fill-rule="nonzero" fill-opacity="1" transform="matrix(1 0 0 1.0025 2199.64 888.508)"/><path d="M-2134.59-840.094C-2135.17-840.094-2135.71-840.593-2135.89-841.076-2136.16-841.901-2136.21-842.88-2135.77-843.657L-2135.74-843.713C-2135.74-843.752-2135.75-843.816-2135.75-843.854-2136.8-843.917-2138-844.039-2139.19-844.197-2140.14-844.32-2141.36-844.353-2142.09-844.925-2142.1-844.933-2142.1-844.946-2142.1-844.959-2142.1-844.974-2142.09-844.988-2142.08-844.996-2141.23-845.357-2140.24-845.185-2139.35-845.279-2137.7-845.326-2136.09-845.399-2134.58-845.49-2134.19-845.653-2133.74-845.708-2133.33-845.576-2132.59-845.631-2131.8-845.711-2131.05-845.774-2130.37-845.791-2129.71-845.964-2129.04-846.013-2128.2-846.021-2127.34-845.153-2128.06-844.315-2128.56-843.721-2129.11-843.831-2129.76-843.809-2130.52-843.779-2131.27-843.755-2132.04-843.755-2131.99-842.346-2132.9-841.11-2133.99-840.305-2134.16-840.169-2134.38-840.095-2134.59-840.094Z" fill="#000000" fill-rule="nonzero" fill-opacity="1" transform="matrix(1 0 0 1.0025 2199.64 888.508)"/><path d="M-2123.41-850.619C-2124.09-850.759-2124.36-851.424-2124.47-851.943-2124.58-852.542-2124.58-853.157-2124.46-853.755-2124.14-855.13-2123.21-856.357-2121.94-856.989-2119.42-858.358-2114.47-856.84-2114.79-853.499-2114.85-853.183-2115.03-852.904-2115.3-852.719-2115.54-852.551-2115.84-852.464-2116.15-852.469-2116.84-852.454-2117.59-852.936-2117.64-853.674-2118.34-854.694-2120.12-855.004-2121.22-854.299-2121.8-853.941-2122.27-853.333-2122.65-852.491-2122.74-852.257-2122.82-852.016-2122.88-851.772-2123-851.372-2123.12-850.959-2123.37-850.636-2123.38-850.625-2123.39-850.618-2123.41-850.619L-2123.41-850.619Z" fill="#000000" fill-rule="nonzero" fill-opacity="1" transform="matrix(1 0 0 1.0025 2199.64 888.508)"/></g></g></g></g></svg>